<?xml version="1.0" standalone="no"?>
<!DOCTYPE svg PUBLIC "-//W3C//DTD SVG 20010904//EN"
 "http://www.w3.org/TR/2001/REC-SVG-20010904/DTD/svg10.dtd">
<svg version="1.0" xmlns="http://www.w3.org/2000/svg"
 width="600.000000pt" height="330.000000pt" viewBox="0 0 600.000000 330.000000"
 preserveAspectRatio="xMidYMid meet">
<metadata>
Created by potrace 1.13, written by Peter Selinger 2001-2015
</metadata>
<g transform="translate(0.000000,330.000000) scale(0.100000,-0.100000)"
fill="#000000" stroke="none">
<path d="M5315 3203 c-16 -8 -32 -17 -34 -19 -8 -7 41 -64 56 -64 8 0 13 -6
11 -12 -5 -13 -121 -66 -161 -73 -18 -4 -18 -3 -3 14 21 23 22 91 1 91 -21 0
-95 -31 -95 -40 0 -15 42 -60 56 -60 31 0 11 -22 -41 -45 -38 -17 -55 -30 -55
-43 0 -27 -38 -57 -100 -79 -526 -189 -819 -297 -816 -300 2 -2 33 7 70 21
l67 24 10 -27 c25 -69 52 -131 55 -128 2 2 -10 38 -26 81 -20 53 -25 78 -17
81 7 3 45 16 86 31 40 14 77 22 81 17 4 -4 20 -41 35 -81 15 -40 29 -71 31
-69 3 2 -9 41 -25 85 l-30 81 92 30 c51 17 97 31 104 31 6 0 19 -21 28 -47 8
-27 23 -59 31 -73 17 -28 14 -17 -18 68 -11 30 -16 57 -12 62 14 12 166 60
191 60 13 0 30 -11 39 -26 19 -28 104 -248 104 -268 0 -14 -212 -101 -227 -94
-4 3 -17 -4 -27 -15 -19 -20 -19 -20 0 -13 110 42 274 108 274 111 0 1 -29 80
-64 174 -35 94 -60 171 -55 171 4 0 10 -4 13 -8 8 -13 116 40 116 55 0 29 36
66 89 92 31 15 118 54 194 86 75 32 135 60 134 62 -2 2 -21 -4 -42 -13 -22 -9
-48 -18 -58 -20 -18 -3 -18 -2 -3 15 9 9 16 34 16 54 0 32 -3 37 -22 37 -13
-1 -36 -8 -53 -17z"/>
<path d="M2080 2521 c-86 -28 -209 -85 -264 -123 -17 -12 -69 -49 -116 -84
-157 -114 -281 -161 -400 -151 -36 3 -126 20 -201 36 -75 17 -149 31 -165 30
-16 0 7 -7 50 -15 43 -8 115 -24 160 -35 45 -12 120 -24 167 -26 147 -9 225
24 432 181 143 108 365 206 466 206 163 0 350 -106 475 -269 50 -65 89 -138
83 -154 -7 -18 -244 -120 -258 -111 -7 4 -9 3 -6 -3 4 -6 -6 -16 -22 -21 -24
-8 -32 -7 -43 5 -20 25 -109 63 -143 62 -25 -1 -23 -3 13 -10 24 -4 62 -19 85
-32 36 -19 42 -27 40 -52 -1 -17 1 -22 4 -12 9 31 18 18 52 -73 18 -50 35 -89
38 -87 2 3 -10 42 -27 88 -35 95 -35 95 -16 102 10 4 23 -19 46 -79 18 -47 34
-83 36 -81 3 2 -9 41 -26 86 -25 70 -28 83 -14 88 19 7 16 11 49 -75 15 -40
29 -71 31 -69 3 2 -7 37 -22 76 -20 54 -24 75 -15 84 16 16 23 5 61 -96 18
-48 35 -86 37 -83 2 2 -12 45 -31 97 -20 51 -34 94 -33 95 1 1 10 4 20 6 15 2
25 -15 54 -90 20 -51 38 -91 40 -88 2 2 -12 45 -31 97 -20 51 -34 94 -33 95 1
1 14 5 28 9 24 6 27 2 59 -80 18 -47 35 -84 37 -82 2 3 -10 41 -27 87 -17 46
-29 84 -28 85 2 1 13 8 25 14 25 13 24 14 72 -117 13 -34 25 -61 27 -59 3 2
-10 45 -28 95 -18 50 -30 93 -27 96 3 3 19 8 35 12 30 6 30 5 63 -81 18 -48
35 -85 37 -82 3 2 -9 40 -26 83 -16 43 -30 84 -30 91 0 8 -9 11 -27 7 -26 -5
-31 0 -61 59 -91 179 -274 323 -459 362 -97 21 -146 18 -243 -14z"/>
<path d="M2210 2011 c-92 -18 -174 -98 -201 -194 -18 -66 -13 -183 11 -252 21
-61 85 -165 101 -165 22 0 32 69 39 260 3 113 11 216 17 230 13 29 45 64 93
102 l35 27 -30 -1 c-16 0 -46 -3 -65 -7z"/>
<path d="M131 1938 c-132 -178 -161 -392 -94 -690 17 -78 28 -88 13 -12 -5 27
-13 112 -16 189 -10 215 25 377 110 509 20 31 34 56 31 56 -2 0 -22 -24 -44
-52z"/>
<path d="M1081 1582 l-43 -38 0 -100 c1 -54 8 -126 17 -159 24 -96 97 -233
160 -302 50 -56 61 -63 93 -63 44 0 82 9 82 20 0 4 -21 29 -46 56 -95 100
-198 371 -195 514 1 60 -7 110 -17 110 -4 0 -27 -18 -51 -38z m55 -44 c2 -75
12 -140 36 -216 10 -35 18 -66 16 -68 -2 -2 -21 37 -42 87 -21 49 -41 88 -44
85 -2 -3 31 -87 74 -187 43 -100 80 -177 82 -171 2 6 -2 20 -8 31 -6 12 -8 21
-6 21 3 0 15 -18 26 -40 12 -23 39 -59 61 -82 22 -23 38 -46 36 -52 -2 -6 -24
-12 -50 -14 -45 -3 -47 -2 -92 55 -55 70 -129 215 -151 298 -9 33 -18 104 -21
158 l-6 98 34 29 c19 16 39 28 44 26 6 -1 10 -27 11 -58z"/>
<path d="M2293 799 c-87 -11 -177 -37 -253 -73 -82 -39 -167 -122 -287 -281
-139 -183 -234 -265 -410 -354 -79 -40 -179 -70 -238 -72 -16 0 -24 -3 -16 -6
28 -11 158 21 236 58 181 86 296 184 447 383 116 151 180 214 265 259 70 36
194 70 318 85 39 5 54 9 35 9 -19 0 -63 -3 -97 -8z"/>
</g>
</svg>
